<?xml version="1.0" encoding="UTF-8" standalone="no"?>
<!DOCTYPE svg PUBLIC "-//W3C//DTD SVG 1.1//EN" "http://www.w3.org/Graphics/SVG/1.1/DTD/svg11.dtd">
<svg width="100%" height="100%" viewBox="0 0 92 94" version="1.1" xmlns="http://www.w3.org/2000/svg" xmlns:xlink="http://www.w3.org/1999/xlink" xml:space="preserve" xmlns:serif="http://www.serif.com/" style="fill-rule:evenodd;clip-rule:evenodd;stroke-linejoin:round;stroke-miterlimit:2;">
    <g transform="matrix(1,0,0,1,-4821,-554)">
        <g transform="matrix(1,0,0,1,4690.74,0)">
            <g transform="matrix(1.15772,0,0,1.15772,-3954.04,-338.75)">
                <g id="classydog-geo-iso-white">
                    <g>
                        <g>
                            <g id="classydog-hoz-positive">
                                <g>
                                    <path d="M3535.12,820.606C3535.52,821.665 3535.98,822.706 3536.48,823.726C3536.64,824.042 3536.67,824.406 3536.57,824.745L3528.57,851.623L3563.49,851.623C3563.49,851.623 3564.95,847.564 3565.65,845.61C3565.87,845.009 3566.46,844.63 3567.1,844.69C3577.84,845.621 3588.89,841.982 3597.1,833.773C3602.08,828.796 3605.57,822.527 3607.17,815.674C3607.17,815.674 3596.25,813.114 3589.41,811.512C3587.07,810.964 3585.21,809.191 3584.55,806.88C3583.89,804.568 3584.53,802.081 3586.23,800.381L3586.24,800.377C3587.17,799.442 3588.29,798.713 3589.53,798.239L3579.37,771.786C3574.43,773.684 3569.94,776.598 3566.2,780.34C3564.65,781.887 3563.26,783.546 3562.03,785.295L3556.84,771.786C3551.9,773.684 3547.41,776.598 3543.67,780.34C3533.14,790.866 3529.78,806.588 3535.07,820.494L3535.12,820.606ZM3570.39,803.991C3573.73,803.991 3576.44,806.704 3576.44,810.045C3576.44,813.387 3573.73,816.1 3570.39,816.1C3567.04,816.1 3564.33,813.387 3564.33,810.045C3564.33,806.704 3567.04,803.991 3570.39,803.991Z" style="fill:white;"/>
                                </g>
                            </g>
                        </g>
                    </g>
                </g>
            </g>
        </g>
    </g>
</svg>
