<?xml version="1.0" encoding="UTF-8" standalone="no"?>
<!DOCTYPE svg PUBLIC "-//W3C//DTD SVG 1.1//EN" "http://www.w3.org/Graphics/SVG/1.1/DTD/svg11.dtd">
<svg width="100%" height="100%" viewBox="0 0 214 217" version="1.1" xmlns="http://www.w3.org/2000/svg" xmlns:xlink="http://www.w3.org/1999/xlink" xml:space="preserve" xmlns:serif="http://www.serif.com/" style="fill-rule:evenodd;clip-rule:evenodd;stroke-linejoin:round;stroke-miterlimit:2;">
    <g transform="matrix(1,0,0,1,-2875,174)">
        <g id="classydog-geo-iso-pink" transform="matrix(1.69917,0,0,1.69917,-2891,-3183.81)">
            <path d="M3404.22,1849.36L3404.14,1849.18C3395.69,1826.97 3401.06,1801.86 3417.88,1785.05C3423.85,1779.07 3431.02,1774.42 3438.91,1771.39L3447.2,1792.96C3449.16,1790.17 3451.38,1787.52 3453.86,1785.05C3459.83,1779.07 3467,1774.42 3474.89,1771.39L3491.12,1813.63C3489.14,1814.39 3487.35,1815.56 3485.86,1817.05L3485.85,1817.06C3483.13,1819.77 3482.11,1823.74 3483.16,1827.43C3484.22,1831.13 3487.19,1833.96 3490.93,1834.83C3501.85,1837.39 3519.29,1841.48 3519.29,1841.48C3516.74,1852.42 3511.16,1862.44 3503.21,1870.39C3490.1,1883.5 3472.45,1889.31 3455.3,1887.82C3454.27,1887.73 3453.33,1888.33 3452.98,1889.29C3451.86,1892.41 3449.53,1898.89 3449.53,1898.89L3393.76,1898.89L3406.53,1855.97C3406.7,1855.43 3406.65,1854.85 3406.39,1854.34C3405.59,1852.71 3404.86,1851.05 3404.22,1849.36ZM3460.55,1822.82C3455.2,1822.82 3450.87,1827.15 3450.87,1832.49C3450.87,1837.83 3455.2,1842.16 3460.55,1842.16C3465.88,1842.16 3470.21,1837.83 3470.21,1832.49C3470.21,1827.15 3465.88,1822.82 3460.55,1822.82Z" style="fill:rgb(244,235,254);"/>
        </g>
    </g>
</svg>
