<?xml version="1.0" encoding="UTF-8" standalone="no"?>
<!DOCTYPE svg PUBLIC "-//W3C//DTD SVG 1.1//EN" "http://www.w3.org/Graphics/SVG/1.1/DTD/svg11.dtd">
<svg width="100%" height="100%" viewBox="0 0 268 59" version="1.1" xmlns="http://www.w3.org/2000/svg" xmlns:xlink="http://www.w3.org/1999/xlink" xml:space="preserve" xmlns:serif="http://www.serif.com/" style="fill-rule:evenodd;clip-rule:evenodd;stroke-linejoin:round;stroke-miterlimit:2;">
    <g transform="matrix(1,0,0,1,-3307,-2084)">
        <g transform="matrix(2.17112,0,0,2.59683,0,0)">
            <g id="classydog-hoz-negative" transform="matrix(1,0,0,1,3.31183,-15.363)">
                <g transform="matrix(0.315285,0,0,0.263599,798.702,658.963)">
                    <path d="M2404.59,668.177C2401.37,668.177 2398.62,667.632 2396.34,666.543C2394.05,665.454 2392.19,663.975 2390.74,662.108C2389.33,660.189 2388.3,657.958 2387.62,655.416C2386.95,652.823 2386.61,650.073 2386.61,647.168C2386.61,644.16 2386.95,641.333 2387.62,638.687C2388.3,636.041 2389.36,633.707 2390.81,631.684C2392.26,629.661 2394.08,628.105 2396.26,627.016C2398.49,625.874 2401.14,625.304 2404.2,625.304C2407.46,625.304 2410.19,625.926 2412.37,627.171C2414.6,628.416 2416.31,630.102 2417.5,632.229C2418.75,634.304 2419.45,636.638 2419.6,639.232L2410.5,641.177C2410.45,639.569 2410.16,638.142 2409.64,636.897C2409.12,635.652 2408.37,634.693 2407.39,634.018C2406.45,633.292 2405.28,632.929 2403.89,632.929C2402.64,632.929 2401.55,633.24 2400.62,633.863C2399.68,634.433 2398.88,635.315 2398.2,636.508C2397.58,637.701 2397.12,639.154 2396.8,640.866C2396.49,642.526 2396.34,644.445 2396.34,646.624C2396.34,649.632 2396.62,652.2 2397.19,654.327C2397.76,656.402 2398.64,658.01 2399.84,659.151C2401.08,660.24 2402.64,660.785 2404.51,660.785C2406.17,660.785 2407.52,660.344 2408.55,659.462C2409.64,658.58 2410.45,657.439 2410.97,656.039C2411.48,654.638 2411.74,653.16 2411.74,651.603L2420.54,652.771C2420.54,654.794 2420.22,656.713 2419.6,658.529C2419.03,660.344 2418.1,661.978 2416.8,663.431C2415.5,664.883 2413.84,666.05 2411.82,666.932C2409.85,667.762 2407.44,668.177 2404.59,668.177Z" style="fill:rgb(99,40,154);fill-rule:nonzero;"/>
                    <rect x="2421.94" y="612.543" width="9.571" height="54.623" style="fill:rgb(99,40,154);fill-rule:nonzero;"/>
                    <path d="M2444.5,668.177C2442.58,668.177 2440.82,667.762 2439.21,666.932C2437.65,666.102 2436.38,664.883 2435.4,663.275C2434.46,661.615 2434,659.566 2434,657.128C2434,655.053 2434.36,653.315 2435.09,651.915C2435.81,650.462 2436.85,649.243 2438.2,648.258C2439.55,647.272 2441.16,646.442 2443.02,645.768C2444.94,645.093 2447.04,644.497 2449.33,643.978C2450.93,643.511 2452.28,643.096 2453.37,642.733C2454.46,642.318 2455.26,641.773 2455.78,641.099C2456.36,640.425 2456.64,639.491 2456.64,638.298C2456.64,636.742 2456.17,635.445 2455.24,634.407C2454.36,633.37 2452.93,632.851 2450.96,632.851C2449.66,632.851 2448.5,633.137 2447.46,633.707C2446.47,634.278 2445.67,635.16 2445.05,636.353C2444.42,637.494 2444.06,638.946 2443.96,640.71L2435.16,639.076C2435.32,636.897 2435.79,634.952 2436.57,633.24C2437.34,631.528 2438.41,630.076 2439.76,628.883C2441.16,627.69 2442.82,626.782 2444.74,626.16C2446.71,625.537 2448.94,625.226 2451.43,625.226C2454.85,625.226 2457.62,625.848 2459.75,627.093C2461.93,628.286 2463.54,630.102 2464.58,632.54C2465.61,634.978 2466.13,638.065 2466.13,641.799L2466.13,651.37C2466.13,652.926 2466.16,654.638 2466.21,656.506C2466.31,658.321 2466.44,660.163 2466.6,662.03C2466.76,663.846 2466.91,665.557 2467.07,667.166L2458.51,667.166C2458.3,665.557 2458.12,663.923 2457.96,662.263C2457.86,660.604 2457.76,658.918 2457.65,657.206L2456.48,657.206C2455.91,659.436 2455.08,661.382 2453.99,663.042C2452.96,664.65 2451.63,665.921 2450.03,666.854C2448.47,667.736 2446.63,668.177 2444.5,668.177ZM2448.16,660.552C2449.09,660.552 2449.97,660.37 2450.8,660.007C2451.63,659.644 2452.41,659.125 2453.14,658.451C2453.92,657.725 2454.59,656.869 2455.16,655.883C2455.78,654.846 2456.3,653.704 2456.72,652.459L2456.64,644.99L2458.82,644.99C2458.14,645.716 2457.29,646.312 2456.25,646.779C2455.21,647.246 2454.1,647.661 2452.91,648.024C2451.76,648.335 2450.6,648.673 2449.4,649.036C2448.26,649.399 2447.22,649.84 2446.29,650.359C2445.36,650.877 2444.61,651.552 2444.03,652.382C2443.46,653.212 2443.18,654.249 2443.18,655.494C2443.18,657.102 2443.65,658.347 2444.58,659.229C2445.57,660.111 2446.76,660.552 2448.16,660.552Z" style="fill:rgb(99,40,154);fill-rule:nonzero;"/>
                    <path d="M2484.42,668.177C2481.57,668.177 2479.1,667.84 2477.03,667.166C2475,666.439 2473.32,665.48 2471.97,664.287C2470.67,663.042 2469.74,661.615 2469.17,660.007C2468.6,658.399 2468.36,656.713 2468.47,654.949L2476.56,653.315C2476.56,654.716 2476.84,656.013 2477.41,657.206C2478.04,658.347 2478.95,659.255 2480.14,659.929C2481.38,660.604 2482.94,660.941 2484.81,660.941C2486.93,660.941 2488.52,660.526 2489.55,659.696C2490.64,658.866 2491.19,657.75 2491.19,656.35C2491.19,655.209 2490.82,654.275 2490.1,653.549C2489.42,652.771 2488.44,652.122 2487.14,651.603C2485.85,651.085 2484.31,650.54 2482.55,649.969C2480.89,649.451 2479.23,648.88 2477.57,648.258C2475.96,647.583 2474.46,646.779 2473.06,645.846C2471.71,644.86 2470.62,643.667 2469.79,642.266C2469.01,640.866 2468.62,639.128 2468.62,637.053C2468.62,634.719 2469.19,632.67 2470.33,630.906C2471.48,629.142 2473.16,627.768 2475.39,626.782C2477.67,625.745 2480.45,625.226 2483.72,625.226C2486.99,625.226 2489.74,625.771 2491.97,626.86C2494.25,627.897 2496.01,629.35 2497.26,631.217C2498.5,633.085 2499.15,635.289 2499.2,637.831L2491.03,639.465C2491.03,638.116 2490.75,636.923 2490.18,635.886C2489.61,634.848 2488.78,634.044 2487.69,633.474C2486.65,632.851 2485.3,632.54 2483.64,632.54C2481.77,632.54 2480.32,632.929 2479.28,633.707C2478.24,634.485 2477.73,635.523 2477.73,636.82C2477.73,637.857 2478.06,638.739 2478.74,639.465C2479.46,640.191 2480.48,640.814 2481.77,641.333C2483.07,641.851 2484.57,642.396 2486.28,642.967C2488.1,643.537 2489.84,644.16 2491.5,644.834C2493.21,645.508 2494.72,646.312 2496.01,647.246C2497.36,648.18 2498.42,649.347 2499.2,650.748C2499.98,652.096 2500.37,653.808 2500.37,655.883C2500.37,658.269 2499.77,660.396 2498.58,662.263C2497.44,664.079 2495.68,665.531 2493.29,666.621C2490.95,667.658 2488,668.177 2484.42,668.177Z" style="fill:rgb(99,40,154);fill-rule:nonzero;"/>
                    <path d="M2516.94,668.177C2514.09,668.177 2511.63,667.84 2509.55,667.166C2507.53,666.439 2505.84,665.48 2504.49,664.287C2503.2,663.042 2502.26,661.615 2501.69,660.007C2501.12,658.399 2500.89,656.713 2500.99,654.949L2509.08,653.315C2509.08,654.716 2509.37,656.013 2509.94,657.206C2510.56,658.347 2511.47,659.255 2512.66,659.929C2513.91,660.604 2515.46,660.941 2517.33,660.941C2519.46,660.941 2521.04,660.526 2522.08,659.696C2523.17,658.866 2523.71,657.75 2523.71,656.35C2523.71,655.209 2523.35,654.275 2522.62,653.549C2521.95,652.771 2520.96,652.122 2519.67,651.603C2518.37,651.085 2516.84,650.54 2515.08,649.969C2513.41,649.451 2511.76,648.88 2510.1,648.258C2508.49,647.583 2506.98,646.779 2505.58,645.846C2504.23,644.86 2503.14,643.667 2502.31,642.266C2501.54,640.866 2501.15,639.128 2501.15,637.053C2501.15,634.719 2501.72,632.67 2502.86,630.906C2504,629.142 2505.69,627.768 2507.92,626.782C2510.2,625.745 2512.97,625.226 2516.24,625.226C2519.51,625.226 2522.26,625.771 2524.49,626.86C2526.77,627.897 2528.54,629.35 2529.78,631.217C2531.03,633.085 2531.68,635.289 2531.73,637.831L2523.56,639.465C2523.56,638.116 2523.27,636.923 2522.7,635.886C2522.13,634.848 2521.3,634.044 2520.21,633.474C2519.17,632.851 2517.82,632.54 2516.16,632.54C2514.3,632.54 2512.85,632.929 2511.81,633.707C2510.77,634.485 2510.25,635.523 2510.25,636.82C2510.25,637.857 2510.59,638.739 2511.26,639.465C2511.99,640.191 2513,640.814 2514.3,641.333C2515.59,641.851 2517.1,642.396 2518.81,642.967C2520.63,643.537 2522.36,644.16 2524.02,644.834C2525.74,645.508 2527.24,646.312 2528.54,647.246C2529.89,648.18 2530.95,649.347 2531.73,650.748C2532.51,652.096 2532.89,653.808 2532.89,655.883C2532.89,658.269 2532.3,660.396 2531.1,662.263C2529.96,664.079 2528.2,665.531 2525.81,666.621C2523.48,667.658 2520.52,668.177 2516.94,668.177Z" style="fill:rgb(99,40,154);fill-rule:nonzero;"/>
                    <path d="M2547.91,680.082C2546.04,680.082 2544.15,679.874 2542.23,679.459C2540.36,679.045 2538.63,678.448 2537.02,677.67C2535.41,676.944 2534.06,675.984 2532.97,674.791L2536.47,667.088C2537.82,668.644 2539.46,669.785 2541.38,670.511C2543.35,671.238 2545.32,671.601 2547.29,671.601C2549.68,671.601 2551.67,671.03 2553.28,669.889C2554.94,668.8 2556.21,667.114 2557.09,664.831C2557.97,662.497 2558.44,659.592 2558.49,656.116L2558.88,650.047L2557.4,650.047C2556.99,653.367 2556.21,656.065 2555.07,658.14C2553.98,660.214 2552.63,661.719 2551.02,662.653C2549.47,663.586 2547.68,664.053 2545.66,664.053C2543.22,664.053 2541.17,663.405 2539.51,662.108C2537.9,660.811 2536.68,658.866 2535.85,656.272C2535.02,653.627 2534.61,650.333 2534.61,646.39L2534.61,626.315L2544.25,626.315L2544.25,643.9C2544.25,647.998 2544.67,650.981 2545.5,652.848C2546.38,654.716 2547.76,655.65 2549.62,655.65C2550.66,655.65 2551.59,655.338 2552.42,654.716C2553.31,654.093 2554.03,653.186 2554.6,651.993C2555.22,650.748 2555.69,649.269 2556,647.557C2556.37,645.846 2556.57,643.9 2556.63,641.722L2556.63,626.315L2566.27,626.315L2566.27,656.895C2566.27,659.799 2566.01,662.471 2565.5,664.909C2565.03,667.295 2564.3,669.422 2563.32,671.289C2562.38,673.157 2561.19,674.739 2559.74,676.036C2558.29,677.385 2556.57,678.396 2554.6,679.07C2552.63,679.745 2550.4,680.082 2547.91,680.082Z" style="fill:rgb(99,40,154);fill-rule:nonzero;"/>
                    <path d="M2583.24,668.177C2580.49,668.177 2578.05,667.347 2575.92,665.687C2573.8,663.975 2572.11,661.511 2570.87,658.295C2569.67,655.079 2569.08,651.189 2569.08,646.624C2569.08,642.111 2569.65,638.272 2570.79,635.108C2571.93,631.943 2573.54,629.531 2575.61,627.871C2577.74,626.211 2580.18,625.382 2582.93,625.382C2585.05,625.382 2586.87,625.874 2588.37,626.86C2589.88,627.845 2591.1,629.246 2592.03,631.062C2593.01,632.825 2593.74,634.926 2594.21,637.364L2595.76,637.442C2595.4,635.471 2595.06,633.603 2594.75,631.84C2594.49,630.076 2594.29,628.442 2594.13,626.938C2593.97,625.433 2593.9,624.111 2593.9,622.969L2593.9,612.543L2603.55,612.543L2603.55,667.166L2595.84,667.166L2595.84,655.961L2594.44,655.961C2593.97,658.399 2593.27,660.526 2592.34,662.341C2591.41,664.157 2590.19,665.583 2588.68,666.621C2587.23,667.658 2585.41,668.177 2583.24,668.177ZM2586.19,660.163C2587.49,660.163 2588.61,659.748 2589.54,658.918C2590.53,658.036 2591.33,656.946 2591.95,655.65C2592.63,654.353 2593.12,652.978 2593.43,651.526C2593.74,650.021 2593.9,648.621 2593.9,647.324L2593.9,646.157C2593.9,645.275 2593.79,644.289 2593.59,643.2C2593.43,642.059 2593.14,640.918 2592.73,639.776C2592.32,638.635 2591.8,637.572 2591.17,636.586C2590.6,635.601 2589.88,634.822 2588.99,634.252C2588.16,633.681 2587.2,633.396 2586.12,633.396C2584.72,633.396 2583.47,633.915 2582.38,634.952C2581.34,635.938 2580.51,637.442 2579.89,639.465C2579.32,641.436 2579.03,643.874 2579.03,646.779C2579.03,649.684 2579.35,652.148 2579.97,654.171C2580.59,656.142 2581.42,657.647 2582.46,658.684C2583.55,659.67 2584.79,660.163 2586.19,660.163Z" style="fill:rgb(99,40,154);fill-rule:nonzero;"/>
                    <path d="M2623.85,668.177C2620.17,668.177 2617.03,667.347 2614.44,665.687C2611.85,664.027 2609.85,661.589 2608.45,658.373C2607.05,655.157 2606.35,651.214 2606.35,646.546C2606.35,641.722 2607.07,637.753 2608.53,634.641C2609.98,631.477 2612.03,629.116 2614.67,627.56C2617.32,626.004 2620.4,625.226 2623.93,625.226C2627.51,625.226 2630.6,626.03 2633.19,627.638C2635.84,629.194 2637.86,631.554 2639.26,634.719C2640.66,637.831 2641.36,641.773 2641.36,646.546C2641.36,651.37 2640.64,655.39 2639.18,658.606C2637.73,661.823 2635.68,664.235 2633.03,665.843C2630.44,667.399 2627.38,668.177 2623.85,668.177ZM2624.01,660.785C2625.67,660.785 2627.07,660.292 2628.21,659.307C2629.35,658.269 2630.21,656.739 2630.78,654.716C2631.4,652.641 2631.71,650.099 2631.71,647.091C2631.71,643.926 2631.4,641.307 2630.78,639.232C2630.16,637.105 2629.25,635.523 2628.05,634.485C2626.91,633.396 2625.46,632.851 2623.7,632.851C2622.09,632.851 2620.72,633.344 2619.57,634.33C2618.43,635.315 2617.55,636.846 2616.93,638.92C2616.36,640.944 2616.07,643.537 2616.07,646.701C2616.07,651.37 2616.75,654.897 2618.1,657.284C2619.5,659.618 2621.47,660.785 2624.01,660.785Z" style="fill:rgb(99,40,154);fill-rule:nonzero;"/>
                    <path d="M2657.7,680.315C2654.02,680.315 2650.96,679.952 2648.52,679.226C2646.13,678.552 2644.34,677.54 2643.15,676.191C2642.01,674.895 2641.44,673.312 2641.44,671.445C2641.44,669.163 2642.3,667.269 2644.01,665.765C2645.72,664.261 2648.13,663.301 2651.24,662.886L2651.24,661.563C2649.01,661.615 2647.22,661.33 2645.87,660.707C2644.53,660.085 2643.85,659.073 2643.85,657.673C2643.85,656.272 2644.5,655.105 2645.8,654.171C2647.14,653.186 2649.06,652.408 2651.55,651.837L2651.55,650.514C2648.75,650.203 2646.57,649.062 2645.02,647.091C2643.46,645.119 2642.68,642.681 2642.68,639.776C2642.68,637.131 2643.36,634.797 2644.71,632.773C2646.05,630.699 2647.97,629.09 2650.47,627.949C2653.01,626.756 2656.04,626.16 2659.57,626.16L2677,626.16L2677,633.552L2665.72,631.684L2665.72,633.24C2668.72,633.863 2670.88,634.9 2672.17,636.353C2673.52,637.805 2674.2,639.621 2674.2,641.799C2674.2,643.926 2673.57,645.846 2672.33,647.557C2671.14,649.269 2669.4,650.618 2667.12,651.603C2664.89,652.589 2662.19,653.082 2659.02,653.082C2658.4,653.082 2657.7,653.056 2656.92,653.004C2656.14,652.952 2655.18,652.823 2654.04,652.615C2653.01,653.341 2652.25,653.964 2651.79,654.482C2651.32,655.001 2651.09,655.468 2651.09,655.883C2651.09,656.246 2651.3,656.557 2651.71,656.817C2652.12,657.024 2652.67,657.18 2653.34,657.284C2654.07,657.336 2654.82,657.361 2655.6,657.361L2663.69,657.361C2664.63,657.361 2665.85,657.439 2667.35,657.595C2668.91,657.699 2670.46,658.062 2672.02,658.684C2673.57,659.307 2674.87,660.318 2675.91,661.719C2677,663.119 2677.54,665.065 2677.54,667.555C2677.54,670.459 2676.74,672.846 2675.13,674.713C2673.57,676.632 2671.29,678.033 2668.28,678.915C2665.33,679.849 2661.8,680.315 2657.7,680.315ZM2658.25,672.379C2660.84,672.379 2662.89,672.171 2664.39,671.756C2665.95,671.393 2667.06,670.797 2667.74,669.967C2668.41,669.189 2668.75,668.255 2668.75,667.166C2668.75,666.128 2668.52,665.324 2668.05,664.753C2667.58,664.131 2666.99,663.716 2666.26,663.508C2665.53,663.249 2664.78,663.093 2664,663.042C2663.23,662.99 2662.58,662.964 2662.06,662.964L2655.21,662.964C2653.24,663.482 2651.81,664.209 2650.93,665.142C2650.1,666.024 2649.69,667.062 2649.69,668.255C2649.69,669.292 2650.02,670.122 2650.7,670.745C2651.37,671.367 2652.33,671.782 2653.58,671.99C2654.87,672.249 2656.43,672.379 2658.25,672.379ZM2658.71,647.402C2660.79,647.402 2662.37,646.753 2663.46,645.456C2664.55,644.16 2665.09,642.448 2665.09,640.321C2665.09,638.039 2664.55,636.223 2663.46,634.874C2662.37,633.474 2660.76,632.773 2658.64,632.773C2656.56,632.773 2654.93,633.474 2653.73,634.874C2652.59,636.223 2652.02,637.987 2652.02,640.165C2652.02,641.618 2652.28,642.889 2652.8,643.978C2653.32,645.067 2654.07,645.923 2655.05,646.546C2656.09,647.116 2657.31,647.402 2658.71,647.402Z" style="fill:rgb(99,40,154);fill-rule:nonzero;"/>
                </g>
                <g transform="matrix(0.336371,0,0,0.281228,333.242,601.087)">
                    <path d="M3535.12,820.606C3535.52,821.665 3535.98,822.706 3536.48,823.726C3536.64,824.042 3536.67,824.406 3536.57,824.745L3528.57,851.623L3563.49,851.623C3563.49,851.623 3564.95,847.564 3565.65,845.61C3565.87,845.009 3566.46,844.63 3567.1,844.69C3577.84,845.621 3588.89,841.982 3597.1,833.773C3602.08,828.796 3605.57,822.527 3607.17,815.674C3607.17,815.674 3596.25,813.114 3589.41,811.512C3587.07,810.964 3585.21,809.191 3584.55,806.88C3583.89,804.568 3584.53,802.081 3586.23,800.381L3586.24,800.377C3587.17,799.442 3588.29,798.713 3589.53,798.239L3579.37,771.786C3574.43,773.684 3569.94,776.598 3566.2,780.34C3564.65,781.887 3563.26,783.546 3562.03,785.295L3556.84,771.786C3551.9,773.684 3547.41,776.598 3543.67,780.34C3533.14,790.866 3529.78,806.588 3535.07,820.494L3535.12,820.606ZM3570.39,803.991C3573.73,803.991 3576.44,806.704 3576.44,810.045C3576.44,813.387 3573.73,816.1 3570.39,816.1C3567.04,816.1 3564.33,813.387 3564.33,810.045C3564.33,806.704 3567.04,803.991 3570.39,803.991Z" style="fill:rgb(99,40,154);"/>
                </g>
            </g>
        </g>
    </g>
</svg>
