<?xml version="1.0" encoding="UTF-8" standalone="no"?>
<!DOCTYPE svg PUBLIC "-//W3C//DTD SVG 1.1//EN" "http://www.w3.org/Graphics/SVG/1.1/DTD/svg11.dtd">
<svg width="100%" height="100%" viewBox="0 0 570 101" version="1.1" xmlns="http://www.w3.org/2000/svg" xmlns:xlink="http://www.w3.org/1999/xlink" xml:space="preserve" xmlns:serif="http://www.serif.com/" style="fill-rule:evenodd;clip-rule:evenodd;stroke-linejoin:round;stroke-miterlimit:2;">
    <g transform="matrix(1,0,0,1,-5910,-554)">
        <g transform="matrix(1,0,0,1,4690.74,0)">
            <g id="classydog-geo-horizontal-purple" transform="matrix(1.22395,0,0,1.50202,4072.92,-3802.17)">
                <g transform="matrix(0.945885,0,0,0.770775,-5669.01,2307.87)">
                    <g>
                        <g id="classydog-hoz-positive">
                            <g>
                                <path d="M3535.12,820.606C3535.52,821.665 3535.98,822.706 3536.48,823.726C3536.64,824.042 3536.67,824.406 3536.57,824.745L3528.57,851.623L3563.49,851.623C3563.49,851.623 3564.95,847.564 3565.65,845.61C3565.87,845.009 3566.46,844.63 3567.1,844.69C3577.84,845.621 3588.89,841.982 3597.1,833.773C3602.08,828.796 3605.57,822.527 3607.17,815.674C3607.17,815.674 3596.25,813.114 3589.41,811.512C3587.07,810.964 3585.21,809.191 3584.55,806.88C3583.89,804.568 3584.53,802.081 3586.23,800.381L3586.24,800.377C3587.17,799.442 3588.29,798.713 3589.53,798.239L3579.37,771.786C3574.43,773.684 3569.94,776.598 3566.2,780.34C3564.65,781.887 3563.26,783.546 3562.03,785.295L3556.84,771.786C3551.9,773.684 3547.41,776.598 3543.67,780.34C3533.14,790.866 3529.78,806.588 3535.07,820.494L3535.12,820.606ZM3570.39,803.991C3573.73,803.991 3576.44,806.704 3576.44,810.045C3576.44,813.387 3573.73,816.1 3570.39,816.1C3567.04,816.1 3564.33,813.387 3564.33,810.045C3564.33,806.704 3567.04,803.991 3570.39,803.991Z" style="fill:rgb(83,16,140);"/>
                            </g>
                        </g>
                    </g>
                </g>
                <g transform="matrix(1.18868,0,0,0.96862,-3058.4,1406.16)">
                    <path d="M704.275,1558.19C709.361,1558.19 713.65,1559.63 717.142,1562.51C720.658,1565.37 722.826,1568.87 723.646,1573.02L712.185,1573.02C710.826,1569.67 708.166,1568 704.205,1568C701.556,1568 699.494,1568.87 698.017,1570.63C696.564,1572.37 695.837,1574.56 695.837,1577.21C695.837,1579.86 696.564,1582.06 698.017,1583.82C699.494,1585.55 701.556,1586.42 704.205,1586.42C708.166,1586.42 710.826,1584.74 712.185,1581.39L723.646,1581.39C722.826,1585.54 720.658,1589.05 717.142,1591.94C713.65,1594.8 709.361,1596.23 704.275,1596.23C698.205,1596.23 693.33,1594.44 689.65,1590.88C685.994,1587.32 684.166,1582.76 684.166,1577.21C684.166,1571.65 685.994,1567.09 689.65,1563.53C693.33,1559.97 698.205,1558.19 704.275,1558.19Z" style="fill:rgb(83,16,140);fill-rule:nonzero;"/>
                    <rect x="725.647" y="1542.79" width="11.813" height="52.559" style="fill:rgb(83,16,140);fill-rule:nonzero;"/>
                    <path d="M757.816,1558.19C760.512,1558.19 762.879,1558.76 764.918,1559.91C766.957,1561.06 768.398,1562.57 769.242,1564.44L769.242,1559.07L780.844,1559.07L780.844,1595.35L769.453,1595.35L769.453,1589.93C768.375,1591.76 766.816,1593.27 764.777,1594.47C762.762,1595.64 760.441,1596.23 757.816,1596.23C752.59,1596.23 748.254,1594.41 744.808,1590.78C741.387,1587.14 739.676,1582.62 739.676,1577.21C739.676,1571.79 741.387,1567.27 744.808,1563.64C748.254,1560 752.59,1558.19 757.816,1558.19ZM760.172,1586.42C762.75,1586.42 764.871,1585.56 766.535,1583.85C768.199,1582.12 769.031,1579.9 769.031,1577.21C769.031,1574.51 768.199,1572.31 766.535,1570.6C764.871,1568.86 762.75,1568 760.172,1568C757.64,1568 755.555,1568.87 753.914,1570.63C752.273,1572.37 751.453,1574.56 751.453,1577.21C751.453,1579.86 752.273,1582.06 753.914,1583.82C755.555,1585.55 757.64,1586.42 760.172,1586.42Z" style="fill:rgb(83,16,140);fill-rule:nonzero;"/>
                    <path d="M792.339,1584.03C792.456,1585.36 792.937,1586.41 793.78,1587.16C794.624,1587.91 795.819,1588.28 797.366,1588.28C798.679,1588.28 799.722,1587.96 800.495,1587.33C801.292,1586.7 801.69,1585.89 801.69,1584.91C801.69,1583.34 800.706,1582.3 798.737,1581.81L793.78,1580.51C790.265,1579.64 787.698,1578.36 786.081,1576.64C784.487,1574.91 783.69,1572.55 783.69,1569.58C783.69,1566.11 784.991,1563.34 787.593,1561.28C790.218,1559.22 793.452,1558.19 797.296,1558.19C801.233,1558.19 804.351,1559.22 806.647,1561.28C808.968,1563.34 810.292,1566.09 810.62,1569.51L800.917,1569.51C800.87,1568.57 800.565,1567.77 800.003,1567.12C799.44,1566.46 798.608,1566.13 797.507,1566.13C796.476,1566.13 795.679,1566.38 795.116,1566.87C794.554,1567.34 794.272,1568 794.272,1568.84C794.272,1570.34 795.21,1571.3 797.085,1571.72L803.483,1573.44C809.343,1574.97 812.272,1578.4 812.272,1583.75C812.272,1586.16 811.569,1588.34 810.163,1590.29C808.78,1592.21 806.964,1593.68 804.714,1594.71C802.487,1595.72 800.085,1596.23 797.507,1596.23C794.788,1596.23 792.386,1595.83 790.3,1595.03C788.237,1594.23 786.503,1592.91 785.097,1591.06C783.69,1589.18 782.858,1586.84 782.601,1584.03L792.339,1584.03Z" style="fill:rgb(83,16,140);fill-rule:nonzero;"/>
                    <path d="M822.427,1584.03C822.544,1585.36 823.025,1586.41 823.868,1587.16C824.712,1587.91 825.907,1588.28 827.454,1588.28C828.767,1588.28 829.81,1587.96 830.583,1587.33C831.38,1586.7 831.779,1585.89 831.779,1584.91C831.779,1583.34 830.794,1582.3 828.825,1581.81L823.868,1580.51C820.353,1579.64 817.786,1578.36 816.169,1576.64C814.575,1574.91 813.779,1572.55 813.779,1569.58C813.779,1566.11 815.079,1563.34 817.681,1561.28C820.306,1559.22 823.54,1558.19 827.384,1558.19C831.322,1558.19 834.439,1559.22 836.736,1561.28C839.056,1563.34 840.38,1566.09 840.708,1569.51L831.005,1569.51C830.958,1568.57 830.654,1567.77 830.091,1567.12C829.529,1566.46 828.697,1566.13 827.595,1566.13C826.564,1566.13 825.767,1566.38 825.204,1566.87C824.642,1567.34 824.361,1568 824.361,1568.84C824.361,1570.34 825.298,1571.3 827.173,1571.72L833.572,1573.44C839.431,1574.97 842.361,1578.4 842.361,1583.75C842.361,1586.16 841.657,1588.34 840.251,1590.29C838.868,1592.21 837.052,1593.68 834.802,1594.71C832.575,1595.72 830.173,1596.23 827.595,1596.23C824.876,1596.23 822.474,1595.83 820.388,1595.03C818.325,1594.23 816.591,1592.91 815.185,1591.06C813.779,1589.18 812.947,1586.84 812.689,1584.03L822.427,1584.03Z" style="fill:rgb(83,16,140);fill-rule:nonzero;"/>
                    <path d="M867.368,1559.07L879.532,1559.07L865.047,1595.35L859.563,1610.39L847.258,1610.39L853.516,1593.91L839.629,1559.07L851.793,1559.07L859.563,1582.52L867.368,1559.07Z" style="fill:rgb(83,16,140);fill-rule:nonzero;"/>
                    <path d="M895.191,1558.19C897.862,1558.19 900.183,1558.76 902.152,1559.91C904.144,1561.06 905.562,1562.57 906.405,1564.44L906.405,1542.79L918.218,1542.79L918.218,1595.35L906.827,1595.35L906.827,1589.93C905.749,1591.76 904.191,1593.27 902.152,1594.47C900.136,1595.64 897.816,1596.23 895.191,1596.23C889.964,1596.23 885.628,1594.41 882.183,1590.78C878.761,1587.14 877.05,1582.62 877.05,1577.21C877.05,1571.79 878.761,1567.27 882.183,1563.64C885.628,1560 889.964,1558.19 895.191,1558.19ZM897.546,1586.42C900.124,1586.42 902.245,1585.56 903.909,1583.85C905.573,1582.12 906.405,1579.9 906.405,1577.21C906.405,1574.51 905.573,1572.31 903.909,1570.6C902.245,1568.86 900.124,1568 897.546,1568C895.015,1568 892.929,1568.87 891.288,1570.63C889.648,1572.37 888.827,1574.56 888.827,1577.21C888.827,1579.86 889.648,1582.06 891.288,1583.82C892.929,1585.55 895.015,1586.42 897.546,1586.42Z" style="fill:rgb(83,16,140);fill-rule:nonzero;"/>
                    <path d="M932.216,1559.77C934.818,1558.71 937.677,1558.19 940.794,1558.19C943.911,1558.19 946.759,1558.71 949.337,1559.77C951.939,1560.82 954.071,1562.24 955.736,1564.02C957.4,1565.8 958.677,1567.83 959.568,1570.11C960.482,1572.36 960.939,1574.72 960.939,1577.21C960.939,1579.69 960.482,1582.07 959.568,1584.34C958.677,1586.59 957.4,1588.61 955.736,1590.39C954.071,1592.17 951.939,1593.59 949.337,1594.64C946.759,1595.7 943.911,1596.23 940.794,1596.23C937.677,1596.23 934.818,1595.7 932.216,1594.64C929.638,1593.59 927.517,1592.17 925.853,1590.39C924.189,1588.61 922.9,1586.59 921.986,1584.34C921.095,1582.07 920.65,1579.69 920.65,1577.21C920.65,1574.72 921.095,1572.36 921.986,1570.11C922.9,1567.83 924.189,1565.8 925.853,1564.02C927.517,1562.24 929.638,1560.82 932.216,1559.77ZM934.396,1583.75C935.919,1585.53 938.052,1586.42 940.794,1586.42C943.536,1586.42 945.657,1585.53 947.157,1583.75C948.681,1581.96 949.443,1579.79 949.443,1577.21C949.443,1574.63 948.681,1572.45 947.157,1570.67C945.657,1568.89 943.536,1568 940.794,1568C938.052,1568 935.919,1568.89 934.396,1570.67C932.896,1572.45 932.146,1574.63 932.146,1577.21C932.146,1579.79 932.896,1581.96 934.396,1583.75Z" style="fill:rgb(83,16,140);fill-rule:nonzero;"/>
                    <path d="M980.162,1558.19C982.834,1558.19 985.177,1558.76 987.193,1559.91C989.209,1561.06 990.638,1562.57 991.482,1564.44L991.482,1559.07L1003.08,1559.07L1003.08,1594.64C1003.08,1597.74 1002.19,1600.55 1000.41,1603.08C998.654,1605.61 996.217,1607.59 993.099,1609.02C990.006,1610.48 986.56,1611.2 982.763,1611.2C977.607,1611.2 973.306,1610.11 969.861,1607.93C966.416,1605.75 964.049,1602.52 962.759,1598.23L974.502,1598.23C975.861,1600.83 978.568,1602.13 982.623,1602.13C985.154,1602.13 987.228,1601.48 988.845,1600.16C990.463,1598.85 991.271,1596.98 991.271,1594.54L991.271,1588.81C990.357,1590.38 988.892,1591.71 986.877,1592.82C984.861,1593.92 982.623,1594.47 980.162,1594.47C974.912,1594.47 970.634,1592.76 967.33,1589.34C964.049,1585.89 962.408,1581.55 962.408,1576.33C962.408,1571.1 964.049,1566.78 967.33,1563.36C970.634,1559.91 974.912,1558.19 980.162,1558.19ZM976.365,1582.44C977.935,1584.04 979.998,1584.84 982.552,1584.84C985.107,1584.84 987.193,1584.04 988.81,1582.44C990.451,1580.83 991.271,1578.79 991.271,1576.33C991.271,1573.87 990.463,1571.84 988.845,1570.25C987.228,1568.65 985.131,1567.86 982.552,1567.86C979.998,1567.86 977.935,1568.65 976.365,1570.25C974.818,1571.82 974.045,1573.84 974.045,1576.33C974.045,1578.81 974.818,1580.85 976.365,1582.44Z" style="fill:rgb(83,16,140);fill-rule:nonzero;"/>
                </g>
            </g>
        </g>
    </g>
</svg>
